<svg xmlns="http://www.w3.org/2000/svg" width="136" height="24" viewBox="0 0 136 24" fill="none"><path fill-rule="evenodd" clip-rule="evenodd" d="M49.7 1V23.29H48.19V1H49.7zm-15.127.016v9.576c1.2894-1.15486 2.957-1.79765 4.688-1.807C42.407 8.785 45.443 10.941 45.443 16.141c0 5.374-3.413 7.4-7.063 7.4C36.4893 23.5257 34.6351 23.0184 33 22.069V1.016h1.573zM74.391 8.827H74.652c3.73.093 6.3 3.049 5.925 7.4L80.551 16.495H69.194C69.1668 17.9828 69.7437 19.4181 70.7929 20.4734c1.0492 1.0552 2.4812 1.6402 3.9691 1.6216C74.858 22.099 74.9537 22.101 75.049 22.101 76.3917 22.0837 77.7122 21.7558 78.907 21.143L79.182 21.001 79.732 22.333C78.2911 23.125 76.6762 23.547 75.032 23.561 74.9167 23.561 74.8003 23.5587 74.683 23.554 69.933 23.4 67.5 19.644 67.653 15.633 67.615 13.8284 68.3104 12.0855 69.5803 10.8027 70.8503 9.52001 72.5861 8.8071 74.391 8.827zm55.033.195V4.234L127.851 4.238V9.026h-2.532v1.348h2.532v7.911c0 3.663 2.03 5.232 4.578 5.232C133.508 23.5072 134.576 23.2921 135.575 22.883L135.119 21.483C134.289 21.8752 133.378 22.0654 132.46 22.038 130.399 21.959 129.424 20.47 129.424 18.17v-7.8H134.112V9.022H129.424zM104.744 8.8C108.393 8.8 111.555 11.527 111.555 16.14 111.555 20.864 108.377 23.512 104.744 23.512 100.67 23.512 97.933 20.212 97.933 16.14 97.933 11.812 100.953 8.8 104.744 8.8zm-49.8 8.922v-8.7L53.37 9.021v8.862C53.37 22.227 55.509 23.511 57.743 23.511 59.9136 23.4494 61.9194 22.3384 63.123 20.531V23.29H64.7V9.018H63.12v9.893c-1.321 1.95-3.02 3.123-4.876 3.123-1.648.0-3.3-.919000000000001-3.3-4.312zm64.146-8.89C120.465 8.84788 121.816 9.20195 123.022 9.863L122.422 11.115c-1.011-.5452-2.14-.833600000000001-3.288-.84C116.79 10.275 115.734 11.432 115.734 12.637c0 1.4134 1.461 2.0093 3.39500000000001 2.7981C119.3 15.5047 119.474 15.5757 119.651 15.649c3.413 1.348 4.137 2.886 4.137 4.2C123.788 22.084 121.712 23.495 118.959 23.495 117.369 23.4766 115.814 23.0273 114.459 22.195L115.135 20.832C116.247 21.5967 117.561 22.0143 118.91 22.032c1.479.0 3.319-.617999999999999 3.3-2.124.0-1.284-1.35299999999999-2.283-3.523-3.139C116.28 15.802 114.173 14.914 114.173 12.631S116.305 8.831 119.089 8.831L119.09 8.832zM85.68 11.816V1.016H84.106V23.293H85.679v-9.8C86.64 11.875 88.479 10.259 90.54 10.275 92.239 10.29 93.812 11.384 93.812 14.475V23.29H95.37V14.143C95.37 10.956 93.701 8.8 90.87 8.8 88.7407 8.86102 86.7872 9.99623 85.68 11.816zm-51.107.645c1.1406-1.3399 2.7879-2.144 4.546-2.219 2.658.0 4.735 2.158 4.75 5.916.0 4.265-2.69 5.977-5.584 5.977C36.9911 22.1215 35.7189 21.801 34.573 21.2V12.461zm70.171-2.187C101.362 10.274 99.522 12.974 99.522 16.14 99.522 19.295 101.347 22.04 104.744 22.04c3.288.0 5.238-2.759 5.238-5.9.0-3.171-1.935-5.866-5.238-5.866zM69.278 14.968C69.4648 12.3153 71.6697 10.2579 74.3289 10.255 74.3893 10.255 74.4503 10.256 74.512 10.258 75.783 10.2831 76.9891 10.8244 77.8525 11.7575 78.7159 12.6905 79.1624 13.9349 79.089 15.204H69.258L69.278 14.968zm5.0509-4.713H74.329 74.328C74.3283 10.255 74.3286 10.255 74.3289 10.255z" fill="#196bde"/><path fill-rule="evenodd" clip-rule="evenodd" d="M23.772 6.691V0H17.131V6.691h6.641zm0 1.963v6.692H17.131V8.654h6.641zM6.638 24V17.308H0V24H6.638zm8.567-6.692V24H8.564V17.308h6.641zm8.567.0V24H17.131V17.308h6.641zm-8.567-1.962V8.654H8.564v6.692h6.641zM6.638 8.654v6.692H0V8.654H6.638zM15.2.0V6.691H8.564V0H15.2zM6.638 6.691V0H0V6.691H6.638z" fill="#196bde"/></svg>